[23/Jun/2016 14:47:11] "POST /mycronjob/ HTTP/1.1" 200 5
[23/Jun/2016 14:47:21] "POST /mycronjob/ HTTP/1.1" 200 5
[23/Jun/2016 14:47:31] "POST /mycronjob/ HTTP/1.1" 200 5
[23/Jun/2016 14:47:41] "POST /mycronjob/ HTTP/1.1" 200 5
[23/Jun/2016 14:47:51] "POST /mycronjob/ HTTP/1.1" 200 5
[23/Jun/2016 14:48:11] "POST /mycronjob/ HTTP/1.1" 200 5
[23/Jun/2016 14:48:21] "POST /mycronjob/ HTTP/1.1" 200 5
[23/Jun/2016 14:48:31] "POST /mycronjob/ HTTP/1.1" 200 5
[23/Jun/2016 14:48:41] "POST /mycronjob/ HTTP/1.1" 200 5
[23/Jun/2016 14:48:51] "POST /mycronjob/ HTTP/1.1" 200 5
[23/Jun/2016 14:49:11] "POST /mycronjob/ HTTP/1.1" 200 5
[23/Jun/2016 14:49:21] "POST /mycronjob/ HTTP/1.1" 200 5
[23/Jun/2016 14:49:31] "POST /mycronjob/ HTTP/1.1" 200 5
[23/Jun/2016 14:49:41] "POST /mycronjob/ HTTP/1.1" 200 5
[23/Jun/2016 14:49:51] "POST /mycronjob/ HTTP/1.1" 200 5
[23/Jun/2016 14:50:11] "POST /mycronjob/ HTTP/1.1" 200 5
[23/Jun/2016 14:50:21] "POST /mycronjob/ HTTP/1.1" 200 5
[23/Jun/2016 14:50:31] "POST /mycronjob/ HTTP/1.1" 200 5
[23/Jun/2016 14:50:41] "POST /mycronjob/ HTTP/1.1" 200 5
[23/Jun/2016 14:50:51] "POST /mycronjob/ HTTP/1.1" 200 5
Not Found: /
[23/Jun/2016 14:50:58] "GET / HTTP/1.1" 404 2478
Not Found: /favicon.ico
[23/Jun/2016 14:50:59] "GET /favicon.ico HTTP/1.1" 404 2511
Not Found: /favicon.ico
[23/Jun/2016 14:50:59] "GET /favicon.ico HTTP/1.1" 404 2511
[23/Jun/2016 14:51:11] "POST /mycronjob/ HTTP/1.1" 200 5
[23/Jun/2016 14:51:21] "POST /mycronjob/ HTTP/1.1" 200 5
[2016-06-23 14:51:28] vod1000000020 /vod/WASUCP/vod1000000020// not exists - mkdir 

[2016-06-23 14:51:28] vod1000000020 Start DownLoad File 

--2016-06-23 14:51:28--  ftp://vision:*password*@10.2.2.152/vod/80955.ts
           => “/home/vision/transcTemp/80955.ts.9”
Connecting to 10.2.2.152:21... connected.
Logging in as vision ... Logged in!
==> SYST ... done.    ==> PWD ... done.
==> TYPE I ... done.  ==> CWD (1) /home/vision/vod ... done.
==> SIZE 80955.ts ... 8712108
==> PASV ... done.    ==> RETR 80955.ts ... done.
Length: 8712108 (8.3M) (unauthoritative)

     0K .......... .......... .......... .......... ..........  0%  190M 0s
    50K .......... .......... .......... .......... ..........  1%  206M 0s
   100K .......... .......... .......... .......... ..........  1%  179M 0s
   150K .......... .......... .......... .......... ..........  2%  223M 0s
   200K .......... .......... .......... .......... ..........  2%  224M 0s
   250K .......... .......... .......... .......... ..........  3%  216M 0s
   300K .......... .......... .......... .......... ..........  4%  211M 0s
   350K .......... .......... .......... .......... ..........  4%  213M 0s
   400K .......... .......... .......... .......... ..........  5%  170M 0s
   450K .......... .......... .......... .......... ..........  5%  226M 0s
   500K .......... .......... .......... .......... ..........  6%  207M 0s
   550K .......... .......... .......... .......... ..........  7%  201M 0s
   600K .......... .......... .......... .......... ..........  7%  234M 0s
   650K .......... .......... .......... .......... ..........  8%  234M 0s
   700K .......... .......... .......... .......... ..........  8%  216M 0s
   750K .......... .......... .......... .......... ..........  9%  212M 0s
   800K .......... .......... .......... .......... ..........  9%  171M 0s
   850K .......... .......... .......... .......... .......... 10%  222M 0s
   900K .......... .......... .......... .......... .......... 11%  207M 0s
   950K .......... .......... .......... .......... .......... 11%  218M 0s
  1000K .......... .......... .......... .......... .......... 12%  224M 0s
  1050K .......... .......... .......... .......... .......... 12%  229M 0s
  1100K .......... .......... .......... .......... .......... 13%  232M 0s
  1150K .......... .......... .......... .......... .......... 14%  236M 0s
  1200K .......... .......... .......... .......... .......... 14%  162M 0s
  1250K .......... .......... .......... .......... .......... 15%  232M 0s
  1300K .......... .......... .......... .......... .......... 15%  226M 0s
  1350K .......... .......... .......... .......... .......... 16%  246M 0s
  1400K .......... .......... .......... .......... .......... 17%  250M 0s
  1450K .......... .......... .......... .......... .......... 17%  248M 0s
  1500K .......... .......... .......... .......... .......... 18%  258M 0s
  1550K .......... .......... .......... .......... .......... 18%  248M 0s
  1600K .......... .......... .......... .......... .......... 19%  183M 0s
  1650K .......... .......... .......... .......... .......... 19%  240M 0s
  1700K .......... .......... .......... .......... .......... 20%  245M 0s
  1750K .......... .......... .......... .......... .......... 21%  266M 0s
  1800K .......... .......... .......... .......... .......... 21%  266M 0s
  1850K .......... .......... .......... .......... .......... 22%  264M 0s
  1900K .......... .......... .......... .......... .......... 22%  248M 0s
  1950K .......... .......... .......... .......... .......... 23%  248M 0s
  2000K .......... .......... .......... .......... .......... 24%  203M 0s
  2050K .......... .......... .......... .......... .......... 24%  256M 0s
  2100K .......... .......... .......... .......... .......... 25%  230M 0s
  2150K .......... .......... .......... .......... .......... 25%  223M 0s
  2200K .......... .......... .......... .......... .......... 26%  253M 0s
  2250K .......... .......... .......... .......... .......... 27%  256M 0s
  2300K .......... .......... .......... .......... .......... 27%  251M 0s
  2350K .......... .......... .......... .......... .......... 28%  237M 0s
  2400K .......... .......... .......... .......... .......... 28%  187M 0s
  2450K .......... .......... .......... .......... .......... 29%  259M 0s
  2500K .......... .......... .......... .......... .......... 29%  267M 0s
  2550K .......... .......... .......... .......... .......... 30%  256M 0s
  2600K .......... .......... .......... .......... .......... 31%  249M 0s
  2650K .......... .......... .......... .......... .......... 31%  226M 0s
  2700K .......... .......... .......... .......... .......... 32%  253M 0s
  2750K .......... .......... .......... .......... .......... 32%  265M 0s
  2800K .......... .......... .......... .......... .......... 33%  204M 0s
  2850K .......... .......... .......... .......... .......... 34%  253M 0s
  2900K .......... .......... .......... .......... .......... 34%  241M 0s
  2950K .......... .......... .......... .......... .......... 35%  258M 0s
  3000K .......... .......... .......... .......... .......... 35%  253M 0s
  3050K .......... .......... .......... .......... .......... 36%  252M 0s
  3100K .......... .......... .......... .......... .......... 37%  261M 0s
  3150K .......... .......... .......... .......... .......... 37%  243M 0s
  3200K .......... .......... .......... .......... .......... 38%  193M 0s
  3250K .......... .......... .......... .......... .......... 38%  256M 0s
  3300K .......... .......... .......... .......... .......... 39%  259M 0s
  3350K .......... .......... .......... .......... .......... 39%  256M 0s
  3400K .......... .......... .......... .......... .......... 40%  236M 0s
  3450K .......... .......... .......... .......... .......... 41%  263M 0s
  3500K .......... .......... .......... .......... .......... 41%  259M 0s
  3550K .......... .......... .......... .......... .......... 42%  253M 0s
  3600K .......... .......... .......... .......... .......... 42%  194M 0s
  3650K .......... .......... .......... .......... .......... 43%  243M 0s
  3700K .......... .......... .......... .......... .......... 44%  253M 0s
  3750K .......... .......... .......... .......... .......... 44%  248M 0s
  3800K .......... .......... .......... .......... .......... 45%  262M 0s
  3850K .......... .......... .......... .......... .......... 45%  256M 0s
  3900K .......... .......... .......... .......... .......... 46%  244M 0s
  3950K .......... .......... .......... .......... .......... 47%  254M 0s
  4000K .......... .......... .......... .......... .......... 47%  205M 0s
  4050K .......... .......... .......... .......... .......... 48%  261M 0s
  4100K .......... .......... .......... .......... .......... 48%  256M 0s
  4150K .......... .......... .......... .......... .......... 49%  227M 0s
  4200K .......... .......... .......... .......... .......... 49%  264M 0s
  4250K .......... .......... .......... .......... .......... 50%  259M 0s
  4300K .......... .......... .......... .......... .......... 51%  256M 0s
  4350K .......... .......... .......... .......... .......... 51%  250M 0s
  4400K .......... .......... .......... .......... .......... 52%  190M 0s
  4450K .......... .......... .......... .......... .......... 52%  256M 0s
  4500K .......... .......... .......... .......... .......... 53%  253M 0s
  4550K .......... .......... .......... .......... .......... 54%  261M 0s
  4600K .......... .......... .......... .......... .......... 54%  253M 0s
  4650K .......... .......... .......... .......... .......... 55%  245M 0s
  4700K .......... .......... .......... .......... .......... 55%  255M 0s
  4750K .......... .......... .......... .......... .......... 56%  251M 0s
  4800K .......... .......... .......... .......... .......... 57%  203M 0s
  4850K .......... .......... .......... .......... .......... 57%  269M 0s
  4900K .......... .......... .......... .......... .......... 58%  236M 0s
  4950K .......... .......... .......... .......... .......... 58%  256M 0s
  5000K .......... .......... .......... .......... .......... 59%  256M 0s
  5050K .......... .......... .......... .......... .......... 59%  258M 0s
  5100K .......... .......... .......... .......... .......... 60%  255M 0s
  5150K .......... .......... .......... .......... .......... 61%  231M 0s
  5200K .......... .......... .......... .......... .......... 61%  196M 0s
  5250K .......... .......... .......... .......... .......... 62%  256M 0s
  5300K .......... .......... .......... .......... .......... 62%  258M 0s
  5350K .......... .......... .......... .......... .......... 63%  255M 0s
  5400K .......... .......... .......... .......... .......... 64%  248M 0s
  5450K .......... .......... .......... .......... .......... 64%  258M 0s
  5500K .......... .......... .......... .......... .......... 65%  248M 0s
  5550K .......... .......... .......... .......... .......... 65%  261M 0s
  5600K .......... .......... .......... .......... .......... 66%  200M 0s
  5650K .......... .......... .......... .......... .......... 66%  253M 0s
  5700K .......... .......... .......... .......... .......... 67%  250M 0s
  5750K .......... .......... .......... .......... .......... 68%  259M 0s
  5800K .......... .......... .......... .......... .......... 68%  256M 0s
  5850K .......... .......... .......... .......... .......... 69%  255M 0s
  5900K .......... .......... .......... .......... .......... 69%  239M 0s
  5950K .......... .......... .......... .......... .......... 70%  257M 0s
  6000K .......... .......... .......... .......... .......... 71%  196M 0s
  6050K .......... .......... .......... .......... .......... 71%  258M 0s
  6100K .......... .......... .......... .......... .......... 72%  253M 0s
  6150K .......... .......... .......... .......... .......... 72%  248M 0s
  6200K .......... .......... .......... .......... .......... 73%  260M 0s
  6250K .......... .......... .......... .......... .......... 74%  250M 0s
  6300K .......... .......... .......... .......... .......... 74%  259M 0s
  6350K .......... .......... .......... .......... .......... 75%  257M 0s
  6400K .......... .......... .......... .......... .......... 75%  189M 0s
  6450K .......... .......... .......... .......... .......... 76%  258M 0s
  6500K .......... .......... .......... .......... .......... 76%  255M 0s
  6550K .......... .......... .......... .......... .......... 77%  262M 0s
  6600K .......... .......... .......... .......... .......... 78%  256M 0s
  6650K .......... .......... .......... .......... .......... 78%  238M 0s
  6700K .......... .......... .......... .......... .......... 79%  255M 0s
  6750K .......... .......... .......... .......... .......... 79%  253M 0s
  6800K .......... .......... .......... .......... .......... 80%  193M 0s
  6850K .......... .......... .......... .......... .......... 81%  247M 0s
  6900K .......... .......... .......... .......... .......... 81%  248M 0s
  6950K .......... .......... .......... .......... .......... 82%  258M 0s
  7000K .......... .......... .......... .......... .......... 82%  258M 0s
  7050K .......... .......... .......... .......... .......... 83%  258M 0s
  7100K .......... .......... .......... .......... .......... 84%  253M 0s
  7150K .......... .......... .......... .......... .......... 84%  244M 0s
  7200K .......... .......... .......... .......... .......... 85%  185M 0s
  7250K .......... .......... .......... .......... .......... 85%  264M 0s
  7300K .......... .......... .......... .......... .......... 86%  270M 0s
  7350K .......... .......... .......... .......... .......... 86%  253M 0s
  7400K .......... .......... .......... .......... .......... 87%  246M 0s
  7450K .......... .......... .......... .......... .......... 88%  253M 0s
  7500K .......... .......... .......... .......... .......... 88%  256M 0s
  7550K .......... .......... .......... .......... .......... 89%  253M 0s
  7600K .......... .......... .......... .......... .......... 89%  200M 0s
  7650K .......... .......... .......... .......... .......... 90%  258M 0s
  7700K .......... .......... .......... .......... .......... 91%  284M 0s
  7750K .......... .......... .......... .......... .......... 91%  292M 0s
  7800K .......... .......... .......... .......... .......... 92%  299M 0s
  7850K .......... .......... .......... .......... .......... 92%  285M 0s
  7900K .......... .......... .......... .......... .......... 93%  296M 0s
  7950K .......... .......... .......... .......... .......... 94%  279M 0s
  8000K .......... .......... .......... .......... .......... 94%  221M 0s
  8050K .......... .......... .......... .......... .......... 95%  293M 0s
  8100K .......... .......... .......... .......... .......... 95%  292M 0s
  8150K .......... .......... .......... .......... .......... 96%  291M 0s
  8200K .......... .......... .......... .......... .......... 96%  296M 0s
  8250K .......... .......... .......... .......... .......... 97%  271M 0s
  8300K .......... .......... .......... .......... .......... 98%  289M 0s
  8350K .......... .......... .......... .......... .......... 98%  293M 0s
  8400K .......... .......... .......... .......... .......... 99%  225M 0s
  8450K .......... .......... .......... .......... .......... 99%  293M 0s
  8500K .......                                               100% 15102G=0.03s

2016-06-23 14:51:28 (240 MB/s) - “/home/vision/transcTemp/80955.ts.9” saved [8712108]

[2016-06-23 14:51:28] vod1000000020 Finish DownLoad File /home/vision/transcTemp/80955.ts

[2016-06-23 14:51:29] vod1000000020 Task Add Success!! 

[23/Jun/2016 14:51:29] "POST /addTask/ HTTP/1.1" 200 61
[23/Jun/2016 14:51:31] "POST /mycronjob/ HTTP/1.1" 200 5
[23/Jun/2016 14:51:41] "POST /mycronjob/ HTTP/1.1" 200 5
[23/Jun/2016 14:51:51] "POST /mycronjob/ HTTP/1.1" 200 5
[23/Jun/2016 14:52:11] "POST /mycronjob/ HTTP/1.1" 200 5
[2016-06-23 14:52:17] vod1000000020 Start Transcoding

[23/Jun/2016 14:52:17] "GET /startTask/vod1000000020 HTTP/1.1" 200 64
ffmpeg version 2.8 Copyright (c) 2000-2015 the FFmpeg developers
  built with gcc 4.4.7 (GCC) 20120313 (Red Hat 4.4.7-3)
  configuration: --prefix=/opt/ffmpeg --enable-gpl --enable-version3 --enable-static --disable-shared --disable-debug --enable-runtime-cpudetect --enable-libmp3lame --enable-libx264 --enable-libspeex --enable-libvorbis --enable-libvpx --enable-libfreetype --enable-libxvid --enable-libopencore-amrnb --enable-libopencore-amrwb --enable-libtheora --enable-libvo-aacenc --enable-libvo-amrwbenc --enable-gray --enable-libopenjpeg --disable-ffserver --enable-indev=alsa
  libavutil      54. 31.100 / 54. 31.100
  libavcodec     56. 60.100 / 56. 60.100
  libavformat    56. 40.101 / 56. 40.101
  libavdevice    56.  4.100 / 56.  4.100
  libavfilter     5. 40.101 /  5. 40.101
  libswscale      3.  1.101 /  3.  1.101
  libswresample   1.  2.101 /  1.  2.101
  libpostproc    53.  3.100 / 53.  3.100
Input #0, mpegts, from '/home/vision/transcTemp/80955.ts':
  Duration: 00:00:42.43, start: 1.000000, bitrate: 1642 kb/s
  Program 1 
    Stream #0:0[0x281]: Video: h264 (Main) ([27][0][0][0] / 0x001B), yuv420p, 528x576 [SAR 16:11 DAR 4:3], 25 fps, 25 tbr, 90k tbn, 50 tbc
    Stream #0:1[0x201]: Audio: mp2 ([3][0][0][0] / 0x0003), 48000 Hz, mono, s16p, 96 kb/s
[libx264 @ 0x2620a40] VBV maxrate specified, but no bufsize, ignored
[libx264 @ 0x2620a40] using SAR=1/1
[libx264 @ 0x2620a40] using cpu capabilities: MMX2 SSE2Fast SSSE3 SSE4.2 AVX
[libx264 @ 0x2620a40] profile High, level 3.0
[libx264 @ 0x2620a40] 264 - core 148 r2705 3f5ed56 - H.264/MPEG-4 AVC codec - Copyleft 2003-2016 - http://www.videolan.org/x264.html - options: cabac=1 ref=3 deblock=1:0:0 analyse=0x3:0x113 me=hex subme=7 psy=1 psy_rd=1.00:0.00 mixed_ref=1 me_range=16 chroma_me=1 trellis=1 8x8dct=1 cqm=0 deadzone=21,11 fast_pskip=1 chroma_qp_offset=-2 threads=12 lookahead_threads=2 sliced_threads=0 nr=0 decimate=1 interlaced=0 bluray_compat=0 constrained_intra=0 bframes=3 b_pyramid=2 b_adapt=1 b_bias=0 direct=1 weightb=1 open_gop=0 weightp=2 keyint=250 keyint_min=25 scenecut=40 intra_refresh=0 rc_lookahead=40 rc=abr mbtree=1 bitrate=800 ratetol=1.0 qcomp=0.60 qpmin=0 qpmax=69 qpstep=4 ip_ratio=1.40 aq=1:1.00
Output #0, mp4, to '/vod/WASUCP/vod1000000020//vod1000000020.mp4':
  Metadata:
    encoder         : Lavf56.40.101
    Stream #0:0: Video: h264 (libx264) ([33][0][0][0] / 0x0021), yuv420p, 640x480 [SAR 1:1 DAR 4:3], q=-1--1, 800 kb/s, 25 fps, 12800 tbn, 25 tbc
    Metadata:
      encoder         : Lavc56.60.100 libx264
    Stream #0:1: Audio: aac (libvo_aacenc) ([64][0][0][0] / 0x0040), 48000 Hz, stereo, s16, 64 kb/s
    Metadata:
      encoder         : Lavc56.60.100 libvo_aacenc
Stream mapping:
  Stream #0:0 -> #0:0 (h264 (native) -> h264 (libx264))
  Stream #0:1 -> #0:1 (mp2 (native) -> aac (libvo_aacenc))
Press [q] to stop, [?] for help
frame=  125 fps=0.0 q=21.0 size=     235kB time=00:00:04.40 bitrate= 436.4kbits/s    frame=  222 fps=219 q=20.0 size=     637kB time=00:00:08.52 bitrate= 612.1kbits/s    frame=  300 fps=196 q=25.0 size=    1142kB time=00:00:11.48 bitrate= 814.1kbits/s    frame=  384 fps=189 q=26.0 size=    1559kB time=00:00:14.85 bitrate= 859.7kbits/s    frame=  457 fps=180 q=28.0 size=    1977kB time=00:00:17.14 bitrate= 944.8kbits/s    frame=  543 fps=178 q=29.0 size=    2359kB time=00:00:21.15 bitrate= 913.5kbits/s    frame=  638 fps=180 q=27.0 size=    2628kB time=00:00:25.03 bitrate= 860.1kbits/s    frame=  733 fps=181 q=27.0 size=    2977kB time=00:00:28.68 bitrate= 850.3kbits/s    frame=  827 fps=182 q=26.0 size=    3338kB time=00:00:32.60 bitrate= 838.6kbits/s    frame=  928 fps=184 q=27.0 size=    3780kB time=00:00:36.51 bitrate= 848.2kbits/s    frame= 1027 fps=185 q=27.0 size=    4186kB time=00:00:40.73 bitrate= 841.8kbits/s    frame= 1060 fps=179 q=-1.0 Lsize=    4583kB time=00:00:42.44 bitrate= 884.7kbits/s    
video:4219kB audio:332kB subtitle:0kB other streams:0kB global headers:0kB muxing overhead: 0.717245%
[libx264 @ 0x2620a40] frame I:7     Avg QP:17.50  size: 17360
[libx264 @ 0x2620a40] frame P:318   Avg QP:21.25  size:  8565
[libx264 @ 0x2620a40] frame B:735   Avg QP:24.70  size:  2006
[libx264 @ 0x2620a40] consecutive B-frames:  3.7%  9.6%  5.9% 80.8%
[libx264 @ 0x2620a40] mb I  I16..4: 23.1% 59.5% 17.5%
[libx264 @ 0x2620a40] mb P  I16..4:  8.2% 14.8%  2.9%  P16..4: 32.7% 14.8%  7.3%  0.0%  0.0%    skip:19.4%
[libx264 @ 0x2620a40] mb B  I16..4:  0.7%  1.1%  0.2%  B16..8: 29.9%  5.7%  1.0%  direct: 3.8%  skip:57.8%  L0:38.9% L1:50.9% BI:10.2%
[libx264 @ 0x2620a40] final ratefactor: 20.63
[libx264 @ 0x2620a40] 8x8 transform intra:57.0% inter:75.7%
[libx264 @ 0x2620a40] coded y,uvDC,uvAC intra: 47.3% 67.7% 29.6% inter: 14.7% 21.6% 2.7%
[libx264 @ 0x2620a40] i16 v,h,dc,p: 34% 39%  4% 23%
[libx264 @ 0x2620a40] i8 v,h,dc,ddl,ddr,vr,hd,vl,hu: 32% 25% 14%  4%  5%  6%  5%  5%  5%
[libx264 @ 0x2620a40] i4 v,h,dc,ddl,ddr,vr,hd,vl,hu: 33% 30% 10%  4%  5%  6%  5%  4%  3%
[libx264 @ 0x2620a40] i8c dc,h,v,p: 41% 25% 23% 11%
[libx264 @ 0x2620a40] Weighted P-Frames: Y:5.7% UV:5.7%
[libx264 @ 0x2620a40] ref P L0: 67.3% 12.4% 15.8%  4.3%  0.1%
[libx264 @ 0x2620a40] ref B L0: 92.4%  6.3%  1.3%
[libx264 @ 0x2620a40] ref B L1: 97.2%  2.8%
[libx264 @ 0x2620a40] kb/s:814.98
[23/Jun/2016 14:52:27] "POST /mycronjob/ HTTP/1.1" 200 5
[23/Jun/2016 14:52:31] "POST /mycronjob/ HTTP/1.1" 200 5
[23/Jun/2016 14:52:41] "POST /mycronjob/ HTTP/1.1" 200 5
[23/Jun/2016 14:52:51] "POST /mycronjob/ HTTP/1.1" 200 5
[23/Jun/2016 14:53:11] "POST /mycronjob/ HTTP/1.1" 200 5
[23/Jun/2016 14:53:21] "POST /mycronjob/ HTTP/1.1" 200 5
[23/Jun/2016 14:53:31] "POST /mycronjob/ HTTP/1.1" 200 5
[23/Jun/2016 14:53:41] "POST /mycronjob/ HTTP/1.1" 200 5
[23/Jun/2016 14:53:51] "POST /mycronjob/ HTTP/1.1" 200 5
[23/Jun/2016 14:54:11] "POST /mycronjob/ HTTP/1.1" 200 5
[23/Jun/2016 14:54:21] "POST /mycronjob/ HTTP/1.1" 200 5
[23/Jun/2016 14:54:31] "POST /mycronjob/ HTTP/1.1" 200 5
[23/Jun/2016 14:54:41] "POST /mycronjob/ HTTP/1.1" 200 5
[23/Jun/2016 14:54:51] "POST /mycronjob/ HTTP/1.1" 200 5
[23/Jun/2016 14:55:11] "POST /mycronjob/ HTTP/1.1" 200 5
[23/Jun/2016 14:55:21] "POST /mycronjob/ HTTP/1.1" 200 5
[23/Jun/2016 14:55:31] "POST /mycronjob/ HTTP/1.1" 200 5
[23/Jun/2016 14:55:41] "POST /mycronjob/ HTTP/1.1" 200 5
[23/Jun/2016 14:55:51] "POST /mycronjob/ HTTP/1.1" 200 5
Performing system checks...

System check identified no issues (0 silenced).
June 23, 2016 - 14:46:54
Django version 1.9.5, using settings 'myTranscoder.settings'
Starting development server at http://0.0.0.0:8095/
Quit the server with CONTROL-C.
+++++++++CRONJOB STARTING++++++++++
+++++++++CRONJOB END++++++++++
+++++++++CRONJOB STARTING++++++++++
+++++++++CRONJOB END++++++++++
+++++++++CRONJOB STARTING++++++++++
+++++++++CRONJOB END++++++++++
+++++++++CRONJOB STARTING++++++++++
+++++++++CRONJOB END++++++++++
+++++++++CRONJOB STARTING++++++++++
+++++++++CRONJOB END++++++++++
+++++++++CRONJOB STARTING++++++++++
+++++++++CRONJOB END++++++++++
+++++++++CRONJOB STARTING++++++++++
+++++++++CRONJOB END++++++++++
+++++++++CRONJOB STARTING++++++++++
+++++++++CRONJOB END++++++++++
+++++++++CRONJOB STARTING++++++++++
+++++++++CRONJOB END++++++++++
+++++++++CRONJOB STARTING++++++++++
+++++++++CRONJOB END++++++++++
+++++++++CRONJOB STARTING++++++++++
+++++++++CRONJOB END++++++++++
+++++++++CRONJOB STARTING++++++++++
+++++++++CRONJOB END++++++++++
+++++++++CRONJOB STARTING++++++++++
+++++++++CRONJOB END++++++++++
+++++++++CRONJOB STARTING++++++++++
+++++++++CRONJOB END++++++++++
+++++++++CRONJOB STARTING++++++++++
+++++++++CRONJOB END++++++++++
+++++++++CRONJOB STARTING++++++++++
+++++++++CRONJOB END++++++++++
+++++++++CRONJOB STARTING++++++++++
+++++++++CRONJOB END++++++++++
+++++++++CRONJOB STARTING++++++++++
+++++++++CRONJOB END++++++++++
+++++++++CRONJOB STARTING++++++++++
+++++++++CRONJOB END++++++++++
+++++++++CRONJOB STARTING++++++++++
+++++++++CRONJOB END++++++++++
+++++++++CRONJOB STARTING++++++++++
+++++++++CRONJOB END++++++++++
+++++++++CRONJOB STARTING++++++++++
+++++++++CRONJOB END++++++++++
+++++++++CRONJOB STARTING++++++++++
+++++++++CRONJOB END++++++++++
+++++++++CRONJOB STARTING++++++++++
+++++++++CRONJOB END++++++++++
+++++++++CRONJOB STARTING++++++++++
+++++++++CRONJOB END++++++++++
+++++++++CRONJOB STARTING++++++++++
+++++++++CRONJOB END++++++++++
+++++++++CRONJOB STARTING++++++++++
CALL FFMPEG for TASKID vod1000000020
2016-06-23 14:52:21 vod1000000020transcoder String 
2016-06-23 14:52:21 vod1000000020 /opt/ffmpeg/bin/ffmpeg -y -i /home/vision/transcTemp/80955.ts -b:v 800000 -maxrate 800000 -minrate 800000 -f mp4 -acodec libvo_aacenc -ar 48000 -b:a 64000 -ac 2 -r 25 -vcodec libx264  -s 640x480 /vod/WASUCP/vod1000000020//vod1000000020.mp4
2016-06-23 14:52:27 vod1000000020 Transcoder-Sucess
m3p
Callback
/m3p/Callback {'Host': '10.2.2.151:11012'}
{
    "action": "transcodeResult",
    "status": 3,
    "taskid": "vod1000000020",
    "downloadURL": "ftp://vision:vision@10.2.2.152/out/vod1000000020.mp4"
}
200
<?xml version="1.0" encoding="UTF-8"?>
<transcodeReportResponse><result>99</result><resultDesc>操作异常:null</resultDesc></transcodeReportResponse>
+++++++++CRONJOB END++++++++++
+++++++++CRONJOB STARTING++++++++++
+++++++++CRONJOB END++++++++++
+++++++++CRONJOB STARTING++++++++++
+++++++++CRONJOB END++++++++++
+++++++++CRONJOB STARTING++++++++++
+++++++++CRONJOB END++++++++++
+++++++++CRONJOB STARTING++++++++++
+++++++++CRONJOB END++++++++++
+++++++++CRONJOB STARTING++++++++++
+++++++++CRONJOB END++++++++++
+++++++++CRONJOB STARTING++++++++++
+++++++++CRONJOB END++++++++++
+++++++++CRONJOB STARTING++++++++++
+++++++++CRONJOB END++++++++++
+++++++++CRONJOB STARTING++++++++++
+++++++++CRONJOB END++++++++++
+++++++++CRONJOB STARTING++++++++++
+++++++++CRONJOB END++++++++++
+++++++++CRONJOB STARTING++++++++++
+++++++++CRONJOB END++++++++++
+++++++++CRONJOB STARTING++++++++++
+++++++++CRONJOB END++++++++++
+++++++++CRONJOB STARTING++++++++++
+++++++++CRONJOB END++++++++++
+++++++++CRONJOB STARTING++++++++++
+++++++++CRONJOB END++++++++++
+++++++++CRONJOB STARTING++++++++++
+++++++++CRONJOB END++++++++++
+++++++++CRONJOB STARTING++++++++++
+++++++++CRONJOB END++++++++++
+++++++++CRONJOB STARTING++++++++++
+++++++++CRONJOB END++++++++++
+++++++++CRONJOB STARTING++++++++++
+++++++++CRONJOB END++++++++++
+++++++++CRONJOB STARTING++++++++++
+++++++++CRONJOB END++++++++++
+++++++++CRONJOB STARTING++++++++++
+++++++++CRO[23/Jun/2016 14:56:11] "POST /mycronjob/ HTTP/1.1" 200 5
[23/Jun/2016 14:56:21] "POST /mycronjob/ HTTP/1.1" 200 5
[23/Jun/2016 14:56:31] "POST /mycronjob/ HTTP/1.1" 200 5
[23/Jun/2016 14:56:41] "POST /mycronjob/ HTTP/1.1" 200 5
[23/Jun/2016 14:56:51] "POST /mycronjob/ HTTP/1.1" 200 5
[23/Jun/2016 14:57:11] "POST /mycronjob/ HTTP/1.1" 200 5
[23/Jun/2016 14:57:21] "POST /mycronjob/ HTTP/1.1" 200 5
[23/Jun/2016 14:57:31] "POST /mycronjob/ HTTP/1.1" 200 5
[23/Jun/2016 14:57:41] "POST /mycronjob/ HTTP/1.1" 200 5
[23/Jun/2016 14:57:51] "POST /mycronjob/ HTTP/1.1" 200 5
[23/Jun/2016 14:58:11] "POST /mycronjob/ HTTP/1.1" 200 5
[23/Jun/2016 14:58:21] "POST /mycronjob/ HTTP/1.1" 200 5
[23/Jun/2016 14:58:31] "POST /mycronjob/ HTTP/1.1" 200 5
[23/Jun/2016 14:58:41] "POST /mycronjob/ HTTP/1.1" 200 5
[23/Jun/2016 14:58:51] "POST /mycronjob/ HTTP/1.1" 200 5
[23/Jun/2016 14:59:11] "POST /mycronjob/ HTTP/1.1" 200 5
[23/Jun/2016 14:59:21] "POST /mycronjob/ HTTP/1.1" 200 5
[23/Jun/2016 14:59:31] "POST /mycronjob/ HTTP/1.1" 200 5
[23/Jun/2016 14:59:41] "POST /mycronjob/ HTTP/1.1" 200 5
[23/Jun/2016 14:59:51] "POST /mycronjob/ HTTP/1.1" 200 5
[2016-06-23 15:00:05] SIMV2016062314512301 /vod/SIMV/SIMV2016062314512302// not exists - mkdir 

[2016-06-23 15:00:05] SIMV2016062314512301 Start DownLoad File 

--2016-06-23 15:00:05--  ftp://vision:*password*@10.2.2.151/mypath/test/SIMV2016062314512300//SIMV2016062314512302.ts
           => “/home/vision/transcTemp/SIMV2016062314512302.ts”
Connecting to 10.2.2.151:21... connected.
Logging in as vision ... Logged in!
==> SYST ... done.    ==> PWD ... done.
==> TYPE I ... done.  ==> CWD (1) /mypath/test/SIMV2016062314512300/ ... done.
==> SIZE SIMV2016062314512302.ts ... 7573016
==> PASV ... done.    ==> RETR SIMV2016062314512302.ts ... done.
Length: 7573016 (7.2M) (unauthoritative)

     0K .......... .......... .......... .......... ..........  0% 84.4M 0s
    50K .......... .......... .......... .......... ..........  1% 87.8M 0s
   100K .......... .......... .......... .......... ..........  2% 80.9M 0s
   150K .......... .......... .......... .......... ..........  2%  111M 0s
   200K .......... .......... .......... .......... ..........  3%  109M 0s
   250K .......... .......... .......... .......... ..........  4% 73.4M 0s
   300K .......... .......... .......... .......... ..........  4%  110M 0s
   350K .......... .......... .......... .......... ..........  5%  100M 0s
   400K .......... .......... .......... .......... ..........  6%  111M 0s
   450K .......... .......... .......... .......... ..........  6%  114M 0s
   500K .......... .......... .......... .......... ..........  7%  122M 0s
   550K .......... .......... .......... .......... ..........  8%  124M 0s
   600K .......... .......... .......... .......... ..........  8%  113M 0s
   650K .......... .......... .......... .......... ..........  9% 98.4M 0s
   700K .......... .......... .......... .......... .......... 10%  121M 0s
   750K .......... .......... .......... .......... .......... 10%  124M 0s
   800K .......... .......... .......... .......... .......... 11%  127M 0s
   850K .......... .......... .......... .......... .......... 12% 97.3M 0s
   900K .......... .......... .......... .......... .......... 12%  127M 0s
   950K .......... .......... .......... .......... .......... 13%  127M 0s
  1000K .......... .......... .......... .......... .......... 14% 96.9M 0s
  1050K .......... .......... .......... .......... .......... 14%  122M 0s
  1100K .......... .......... .......... .......... .......... 15%  132M 0s
  1150K .......... .......... .......... .......... .......... 16%  119M 0s
  1200K .......... .......... .......... .......... .......... 16% 99.9M 0s
  1250K .......... .......... .......... .......... .......... 17%  104M 0s
  1300K .......... .......... .......... .......... .......... 18%  125M 0s
  1350K .......... .......... .......... .......... .......... 18%  129M 0s
  1400K .......... .......... .......... .......... .......... 19%  101M 0s
  1450K .......... .......... .......... .......... .......... 20%  103M 0s
  1500K .......... .......... .......... .......... .......... 20%  126M 0s
  1550K .......... .......... .......... .......... .......... 21%  124M 0s
  1600K .......... .......... .......... .......... .......... 22%  114M 0s
  1650K .......... .......... .......... .......... .......... 22% 96.0M 0s
  1700K .......... .......... .......... .......... .......... 23%  125M 0s
  1750K .......... .......... .......... .......... .......... 24%  122M 0s
  1800K .......... .......... .......... .......... .......... 25% 87.0M 0s
  1850K .......... .......... .......... .......... .......... 25%  125M 0s
  1900K .......... .......... .......... .......... .......... 26%  130M 0s
  1950K .......... .......... .......... .......... .......... 27%  111M 0s
  2000K .......... .......... .......... .......... .......... 27% 93.8M 0s
  2050K .......... .......... .......... .......... .......... 28%  125M 0s
  2100K .......... .......... .......... .......... .......... 29%  123M 0s
  2150K .......... .......... .......... .......... .......... 29%  115M 0s
  2200K .......... .......... .......... .......... .......... 30% 91.4M 0s
  2250K .......... .......... .......... .......... .......... 31%  129M 0s
  2300K .......... .......... .......... .......... .......... 31%  129M 0s
  2350K .......... .......... .......... .......... .......... 32%  110M 0s
  2400K .......... .......... .......... .......... .......... 33% 95.4M 0s
  2450K .......... .......... .......... .......... .......... 33%  126M 0s
  2500K .......... .......... .......... .......... .......... 34%  127M 0s
  2550K .......... .......... .......... .......... .......... 35%  101M 0s
  2600K .......... .......... .......... .......... .......... 35%  108M 0s
  2650K .......... .......... .......... .......... .......... 36%  125M 0s
  2700K .......... .......... .......... .......... .......... 37%  104M 0s
  2750K .......... .......... .......... .......... .......... 37%  101M 0s
  2800K .......... .......... .......... .......... .......... 38%  126M 0s
  2850K .......... .......... .......... .......... .......... 39%  127M 0s
  2900K .......... .......... .......... .......... .......... 39%  111M 0s
  2950K .......... .......... .......... .......... .......... 40% 90.9M 0s
  3000K .......... .......... .......... .......... .......... 41%  127M 0s
  3050K .......... .......... .......... .......... .......... 41%  125M 0s
  3100K .......... .......... .......... .......... .......... 42%  108M 0s
  3150K .......... .......... .......... .......... .......... 43%  101M 0s
  3200K .......... .......... .......... .......... .......... 43%  129M 0s
  3250K .......... .......... .......... .......... .......... 44%  127M 0s
  3300K .......... .......... .......... .......... .......... 45% 81.2M 0s
  3350K .......... .......... .......... .......... .......... 45%  124M 0s
  3400K .......... .......... .......... .......... .......... 46%  129M 0s
  3450K .......... .......... .......... .......... .......... 47%  110M 0s
  3500K .......... .......... .......... .......... .......... 48%  123M 0s
  3550K .......... .......... .......... .......... .......... 48%  103M 0s
  3600K .......... .......... .......... .......... .......... 49%  127M 0s
  3650K .......... .......... .......... .......... .......... 50%  108M 0s
  3700K .......... .......... .......... .......... .......... 50% 94.5M 0s
  3750K .......... .......... .......... .......... .......... 51%  119M 0s
  3800K .......... .......... .......... .......... .......... 52%  129M 0s
  3850K .......... .......... .......... .......... .......... 52%  103M 0s
  3900K .......... .......... .......... .......... .......... 53%  106M 0s
  3950K .......... .......... .......... .......... .......... 54%  121M 0s
  4000K .......... .......... .......... .......... .......... 54%  131M 0s
  4050K .......... .......... .......... .......... .......... 55% 81.4M 0s
  4100K .......... .......... .......... .......... .......... 56%  129M 0s
  4150K .......... .......... .......... .......... .......... 56%  123M 0s
  4200K .......... .......... .......... .......... .......... 57%  107M 0s
  4250K .......... .......... .......... .......... .......... 58%  126M 0s
  4300K .......... .......... .......... .......... .......... 58%  104M 0s
  4350K .......... .......... .......... .......... .......... 59%  129M 0s
  4400K .......... .......... .......... .......... .......... 60%  105M 0s
  4450K .......... .......... .......... .......... .......... 60% 93.5M 0s
  4500K .......... .......... .......... .......... .......... 61%  125M 0s
  4550K .......... .......... .......... .......... .......... 62%  130M 0s
  4600K .......... .......... .......... .......... .......... 62%  105M 0s
  4650K .......... .......... .......... .......... .......... 63%  107M 0s
  4700K .......... .......... .......... .......... .......... 64%  123M 0s
  4750K .......... .......... .......... .......... .......... 64% 98.1M 0s
  4800K .......... .......... .......... .......... .......... 65%  132M 0s
  4850K .......... .......... .......... .......... .......... 66% 95.5M 0s
  4900K .......... .......... .......... .......... .......... 66%  128M 0s
  4950K .......... .......... .......... .......... .......... 67%  100M 0s
  5000K .......... .......... .......... .......... .......... 68%  109M 0s
  5050K .......... .......... .......... .......... .......... 68%  122M 0s
  5100K .......... .......... .......... .......... .......... 69%  133M 0s
  5150K .......... .......... .......... .......... .......... 70% 96.0M 0s
  5200K .......... .......... .......... .......... .......... 70%  108M 0s
  5250K .......... .......... .......... .......... .......... 71%  122M 0s
  5300K .......... .......... .......... .......... .......... 72%  123M 0s
  5350K .......... .......... .......... .......... .......... 73%  111M 0s
  5400K .......... .......... .......... .......... .......... 73% 99.8M 0s
  5450K .......... .......... .......... .......... .......... 74%  126M 0s
  5500K .......... .......... .......... .......... .......... 75%  102M 0s
  5550K .......... .......... .......... .......... .......... 75%  131M 0s
  5600K .......... .......... .......... .......... .......... 76%  104M 0s
  5650K .......... .......... .......... .......... .......... 77%  115M 0s
  5700K .......... .......... .......... .......... .......... 77%  106M 0s
  5750K .......... .......... .......... .......... .......... 78%  124M 0s
  5800K .......... .......... .......... .......... .......... 79%  108M 0s
  5850K .......... .......... .......... .......... .......... 79%  118M 0s
  5900K .......... .......... .......... .......... .......... 80%  103M 0s
  5950K .......... .......... .......... .......... .......... 81%  106M 0s
  6000K .......... .......... .......... .......... .......... 81%  123M 0s
  6050K .......... .......... .......... .......... .......... 82%  128M 0s
  6100K .......... .......... .......... .......... .......... 83% 97.3M 0s
  6150K .......... .......... .......... .......... .......... 83%  105M 0s
  6200K .......... .......... .......... .......... .......... 84%  123M 0s
  6250K .......... .......... .......... .......... .......... 85%  140M 0s
  6300K .......... .......... .......... .......... .......... 85% 80.0M 0s
  6350K .......... .......... .......... .......... .......... 86%  131M 0s
  6400K .......... .......... .......... .......... .......... 87%  122M 0s
  6450K .......... .......... .......... .......... .......... 87%  107M 0s
  6500K .......... .......... .......... .......... .......... 88%  120M 0s
  6550K .......... .......... .......... .......... .......... 89% 99.8M 0s
  6600K .......... .......... .......... .......... .......... 89%  137M 0s
  6650K .......... .......... .......... .......... .......... 90%  102M 0s
  6700K .......... .......... .......... .......... .......... 91%  121M 0s
  6750K .......... .......... .......... .......... .......... 91%  108M 0s
  6800K .......... .......... .......... .......... .......... 92%  115M 0s
  6850K .......... .......... .......... .......... .......... 93%  114M 0s
  6900K .......... .......... .......... .......... .......... 93% 97.7M 0s
  6950K .......... .......... .......... .......... .......... 94%  130M 0s
  7000K .......... .......... .......... .......... .......... 95%  128M 0s
  7050K .......... .......... .......... .......... .......... 96%  102M 0s
  7100K .......... .......... .......... .......... .......... 96%  101M 0s
  7150K .......... .......... .......... .......... .......... 97%  132M 0s
  7200K .......... .......... .......... .......... .......... 98%  117M 0s
  7250K .......... .......... .......... .......... .......... 98% 87.5M 0s
  7300K .......... .......... .......... .......... .......... 99%  122M 0s
  7350K .......... .......... .......... .......... .....     100%  124M=0.06s

2016-06-23 15:00:05 (111 MB/s) - “/home/vision/transcTemp/SIMV2016062314512302.ts” saved [7573016]

[2016-06-23 15:00:05] SIMV2016062314512301 Finish DownLoad File /home/vision/transcTemp/SIMV2016062314512302.ts

[2016-06-23 15:00:05] SIMV2016062314512301 Task Add Success!! 

[23/Jun/2016 15:00:05] "POST /addTask/ HTTP/1.1" 200 68
[2016-06-23 15:00:05] SIMV2016062314512301 Start Transcoding

[23/Jun/2016 15:00:05] "GET /startTask/SIMV2016062314512301 HTTP/1.1" 200 71
ffmpeg version 2.8 Copyright (c) 2000-2015 the FFmpeg developers
  built with gcc 4.4.7 (GCC) 20120313 (Red Hat 4.4.7-3)
  configuration: --prefix=/opt/ffmpeg --enable-gpl --enable-version3 --enable-static --disable-shared --disable-debug --enable-runtime-cpudetect --enable-libmp3lame --enable-libx264 --enable-libspeex --enable-libvorbis --enable-libvpx --enable-libfreetype --enable-libxvid --enable-libopencore-amrnb --enable-libopencore-amrwb --enable-libtheora --enable-libvo-aacenc --enable-libvo-amrwbenc --enable-gray --enable-libopenjpeg --disable-ffserver --enable-indev=alsa
  libavutil      54. 31.100 / 54. 31.100
  libavcodec     56. 60.100 / 56. 60.100
  libavformat    56. 40.101 / 56. 40.101
  libavdevice    56.  4.100 / 56.  4.100
  libavfilter     5. 40.101 /  5. 40.101
  libswscale      3.  1.101 /  3.  1.101
  libswresample   1.  2.101 /  1.  2.101
  libpostproc    53.  3.100 / 53.  3.100
Input #0, mpegts, from '/home/vision/transcTemp/SIMV2016062314512302.ts':
  Duration: 00:00:31.82, start: 62.044056, bitrate: 1904 kb/s
  Program 1 
    Stream #0:0[0x100]: Video: h264 (High) ([27][0][0][0] / 0x001B), yuv420p, 720x576 [SAR 16:15 DAR 4:3], 25 fps, 25 tbr, 90k tbn, 50 tbc
    Stream #0:1[0x101]: Audio: mp2 ([3][0][0][0] / 0x0003), 48000 Hz, stereo, s16p, 128 kb/s
[libx264 @ 0x255b320] VBV maxrate specified, but no bufsize, ignored
[libx264 @ 0x255b320] using SAR=1/1
[libx264 @ 0x255b320] using cpu capabilities: MMX2 SSE2Fast SSSE3 SSE4.2 AVX
[libx264 @ 0x255b320] profile High, level 3.0
Output #0, mpegts, to '/vod/SIMV/SIMV2016062314512302//SIMV2016062314512301.ts':
  Metadata:
    encoder         : Lavf56.40.101
    Stream #0:0: Video: h264 (libx264), yuv420p, 640x480 [SAR 1:1 DAR 4:3], q=-1--1, 800 kb/s, 25 fps, 90k tbn, 25 tbc
    Metadata:
      encoder         : Lavc56.60.100 libx264
    Stream #0:1: Audio: aac (libvo_aacenc), 48000 Hz, stereo, s16, 64 kb/s
    Metadata:
      encoder         : Lavc56.60.100 libvo_aacenc
Stream mapping:
  Stream #0:0 -> #0:0 (h264 (native) -> h264 (libx264))
  Stream #0:1 -> #0:1 (mp2 (native) -> aac (libvo_aacenc))
Press [q] to stop, [?] for help
[h264 @ 0x2c8f9e0] Delayed frames seen. Reenabling low delay requires a codec flush.
[h264 @ 0x2cd7140] Delayed frames seen. Reenabling low delay requires a codec flush.
[h264 @ 0x2d1e8a0] Delayed frames seen. Reenabling low delay requires a codec flush.
[h264 @ 0x2d66000] Delayed frames seen. Reenabling low delay requires a codec flush.
[h264 @ 0x2dad760] Delayed frames seen. Reenabling low delay requires a codec flush.
[h264 @ 0x2df4ec0] Delayed frames seen. Reenabling low delay requires a codec flush.
[h264 @ 0x2e3c620] Delayed frames seen. Reenabling low delay requires a codec flush.
[h264 @ 0x2df4ec0] Delayed frames seen. Reenabling low delay requires a codec flush.
[h264 @ 0x2d1e8a0] Delayed frames seen. Reenabling low delay requires a codec flush.
[h264 @ 0x2c8f9e0] Delayed frames seen. Reenabling low delay requires a codec flush.
    Last message repeated 1 times
[h264 @ 0x2e3c620] Delayed frames seen. Reenabling low delay requires a codec flush.
[h264 @ 0x2d66000] Delayed frames seen. Reenabling low delay requires a codec flush.
frame=  111 fps=0.0 q=29.0 size=     236kB time=00:00:03.80 bitrate= 508.5kbits/s    [h264 @ 0x2e3c620] Delayed frames seen. Reenabling low delay requires a codec flush.
[h264 @ 0x2d1e8a0] Delayed frames seen. Reenabling low delay requires a codec flush.
[h264 @ 0x2d66000] Delayed frames seen. Reenabling low delay requires a codec flush.
[h264 @ 0x2df4ec0] Delayed frames seen. Reenabling low delay requires a codec flush.
[h264 @ 0x2c48280] Delayed frames seen. Reenabling low delay requires a codec flush.
[h264 @ 0x2c8f9e0] Delayed frames seen. Reenabling low delay requires a codec flush.
[h264 @ 0x2d1e8a0] Delayed frames seen. Reenabling low delay requires a codec flush.
[h264 @ 0x2c48280] Delayed frames seen. Reenabling low delay requires a codec flush.
[h264 @ 0x2df4ec0] Delayed frames seen. Reenabling low delay requires a codec flush.
[h264 @ 0x2c48280] Delayed frames seen. Reenabling low delay requires a codec flush.
frame=  212 fps=211 q=28.0 size=     706kB time=00:00:08.11 bitrate= 712.5kbits/s    [h264 @ 0x2cd7140] Delayed frames seen. Reenabling low delay requires a codec flush.
[h264 @ 0x2dad760] Delayed frames seen. Reenabling low delay requires a codec flush.
[h264 @ 0x2df4ec0] Delayed frames seen. Reenabling low delay requires a codec flush.
[h264 @ 0x2dad760] Delayed frames seen. Reenabling low delay requires a codec flush.
[h264 @ 0x2cd7140] Delayed frames seen. Reenabling low delay requires a codec flush.
[h264 @ 0x2bef7c0] Delayed frames seen. Reenabling low delay requires a codec flush.
frame=  318 fps=211 q=28.0 size=    1227kB time=00:00:12.14 bitrate= 827.2kbits/s    [h264 @ 0x2dad760] Delayed frames seen. Reenabling low delay requires a codec flush.
[h264 @ 0x2bef7c0] Delayed frames seen. Reenabling low delay requires a codec flush.
[h264 @ 0x2d1e8a0] Delayed frames seen. Reenabling low delay requires a codec flush.
[h264 @ 0x2c8f9e0] Delayed frames seen. Reenabling low delay requires a codec flush.
[h264 @ 0x2df4ec0] Delayed frames seen. Reenabling low delay requires a codec flush.
[h264 @ 0x2d66000] Delayed frames seen. Reenabling low delay requires a codec flush.
[h264 @ 0x2bef7c0] Delayed frames seen. Reenabling low delay requires a codec flush.
[h264 @ 0x2c8f9e0] Delayed frames seen. Reenabling low delay requires a codec flush.
[h264 @ 0x2d1e8a0] Delayed frames seen. Reenabling low delay requires a codec flush.
[h264 @ 0x2c8f9e0] Delayed frames seen. Reenabling low delay requires a codec flush.
frame=  424 fps=211 q=29.0 size=    1796kB time=00:00:16.35 bitrate= 900.0kbits/s    [h264 @ 0x2e3c620] Delayed frames seen. Reenabling low delay requires a codec flush.
[h264 @ 0x2d66000] Delayed frames seen. Reenabling low delay requires a codec flush.
[h264 @ 0x2e3c620] Delayed frames seen. Reenabling low delay requires a codec flush.
[h264 @ 0x2d66000] Delayed frames seen. Reenabling low delay requires a codec flush.
frame=  549 fps=219 q=28.0 size=    2322kB time=00:00:21.47 bitrate= 886.0kbits/s    [h264 @ 0x2c8f9e0] Delayed frames seen. Reenabling low delay requires a codec flush.
[h264 @ 0x2e3c620] Delayed frames seen. Reenabling low delay requires a codec flush.
[h264 @ 0x2d66000] Delayed frames seen. Reenabling low delay requires a codec flush.
[h264 @ 0x2c8f9e0] Delayed frames seen. Reenabling low delay requires a codec flush.
[h264 @ 0x2c48280] Delayed frames seen. Reenabling low delay requires a codec flush.
[h264 @ 0x2dad760] Delayed frames seen. Reenabling low delay requires a codec flush.
frame=  691 fps=230 q=25.0 size=    2794kB time=00:00:27.16 bitrate= 842.5kbits/s    [h264 @ 0x2cd7140] Delayed frames seen. Reenabling low delay requires a codec flush.
[h264 @ 0x2df4ec0] Delayed frames seen. Reenabling low delay requires a codec flush.
[h264 @ 0x2d66000] Delayed frames seen. Reenabling low delay requires a codec flush.
[h264 @ 0x2c8f9e0] Delayed frames seen. Reenabling low delay requires a codec flush.
frame=  795 fps=218 q=-1.0 Lsize=    3487kB time=00:00:31.77 bitrate= 899.0kbits/s    
video:2882kB audio:249kB subtitle:0kB other streams:0kB global headers:0kB muxing overhead: 11.355533%
[libx264 @ 0x255b320] frame I:37    Avg QP:16.41  size: 15679
[libx264 @ 0x255b320] frame P:250   Avg QP:18.54  size:  5787
[libx264 @ 0x255b320] frame B:508   Avg QP:20.80  size:  1820
[libx264 @ 0x255b320] consecutive B-frames: 10.1% 10.8% 10.2% 68.9%
[libx264 @ 0x255b320] mb I  I16..4: 36.8% 45.6% 17.6%
[libx264 @ 0x255b320] mb P  I16..4:  6.5% 15.0%  2.8%  P16..4: 15.3%  7.1%  3.6%  0.0%  0.0%    skip:49.6%
[libx264 @ 0x255b320] mb B  I16..4:  0.8%  1.8%  0.5%  B16..8: 17.3%  4.8%  1.1%  direct: 3.3%  skip:70.5%  L0:46.6% L1:45.3% BI: 8.1%
[libx264 @ 0x255b320] final ratefactor: 20.90
[libx264 @ 0x255b320] 8x8 transform intra:56.1% inter:69.1%
[libx264 @ 0x255b320] coded y,uvDC,uvAC intra: 42.4% 54.3% 28.9% inter: 8.2% 11.0% 1.1%
[libx264 @ 0x255b320] i16 v,h,dc,p: 53% 31%  7%  9%
[libx264 @ 0x255b320] i8 v,h,dc,ddl,ddr,vr,hd,vl,hu: 21% 27% 20%  4%  5%  5%  5%  5%  8%
[libx264 @ 0x255b320] i4 v,h,dc,ddl,ddr,vr,hd,vl,hu: 26% 25% 10%  5%  7%  7%  7%  6%  6%
[libx264 @ 0x255b320] i8c dc,h,v,p: 56% 26% 14%  5%
[libx264 @ 0x255b320] Weighted P-Frames: Y:7.6% UV:6.0%
[libx264 @ 0x255b320] ref P L0: 69.5% 12.0% 13.5%  4.5%  0.4%
[libx264 @ 0x255b320] ref B L0: 90.1%  8.6%  1.3%
[libx264 @ 0x255b320] ref B L1: 97.3%  2.7%
[libx264 @ 0x255b320] kb/s:742.48
[libvo_aacenc @ 0x25810e0] 1 frames left in the queue on closing
[23/Jun/2016 15:00:15] "POST /mycronjob/ HTTP/1.1" 200 5
[23/Jun/2016 15:00:21] "POST /mycronjob/ HTTP/1.1" 200 5
[23/Jun/2016 15:00:31] "POST /mycronjob/ HTTP/1.1" 200 5
[23/Jun/2016 15:00:41] "POST /mycronjob/ HTTP/1.1" 200 5
[23/Jun/2016 15:00:51] "POST /mycronjob/ HTTP/1.1" 200 5
[23/Jun/2016 15:01:11] "POST /mycronjob/ HTTP/1.1" 200 5
[23/Jun/2016 15:01:21] "POST /mycronjob/ HTTP/1.1" 200 5
[23/Jun/2016 15:01:31] "POST /mycronjob/ HTTP/1.1" 200 5
[23/Jun/2016 15:01:41] "POST /mycronjob/ HTTP/1.1" 200 5
[23/Jun/2016 15:01:51] "POST /mycronjob/ HTTP/1.1" 200 5
[23/Jun/2016 15:02:11] "POST /mycronjob/ HTTP/1.1" 200 5
[23/Jun/2016 15:02:21] "POST /mycronjob/ HTTP/1.1" 200 5
[23/Jun/2016 15:02:31] "POST /mycronjob/ HTTP/1.1" 200 5
[23/Jun/2016 15:02:41] "POST /mycronjob/ HTTP/1.1" 200 5
[23/Jun/2016 15:02:51] "POST /mycronjob/ HTTP/1.1" 200 5
[23/Jun/2016 15:03:11] "POST /mycronjob/ HTTP/1.1" 200 5
[23/Jun/2016 15:03:21] "POST /mycronjob/ HTTP/1.1" 200 5
[23/Jun/2016 15:03:31] "POST /mycronjob/ HTTP/1.1" 200 5
[23/Jun/2016 15:03:41] "POST /mycronjob/ HTTP/1.1" 200 5
[23/Jun/2016 15:03:51] "POST /mycronjob/ HTTP/1.1" 200 5
[23/Jun/2016 15:04:11] "POST /mycronjob/ HTTP/1.1" 200 5
[23/Jun/2016 15:04:21] "POST /mycronjob/ HTTP/1.1" 200 5
[2016-08-16 14:44:57] mysql20160615174459123 /vod/WASUCP/mysql20160615174459123// not exists - mkdir 

[2016-08-16 14:44:57] mysql20160615174459123 Task Add Faild!! 

[2016-08-16 14:46:26] mysql20160615174459123 /vod/WASUCP/mysql20160615174459123// has exists

[2016-08-16 14:46:26] mysql20160615174459123 Start DownLoad File 

[2016-08-16 14:46:26] mysql20160615174459123 Finish DownLoad File /home/vision/transcTemp/ygxt2-24.mp4

[2016-08-16 14:46:26] mysql20160615174459123 Task Add Success!! 

[2016-08-16 14:57:41] mysql20160615174459123 Start Transcoding

[2016-08-16 15:02:14] mysql20160615174459124 /vod/WASUCP/mysql20160615174459124// not exists - mkdir 

[2016-08-16 15:02:14] mysql20160615174459124 Start DownLoad File 

[2016-08-16 15:02:15] mysql20160615174459124 Finish DownLoad File /home/vision/transcTemp/ygxt2-24.mp4

[2016-08-16 15:02:15] mysql20160615174459124 Task Add Success!! 

[2016-08-16 15:02:36] mysql20160615174459124 Start Transcoding

[2016-08-16 15:06:39] mysql20160615174459124 Start Transcoding

[2016-08-16 15:13:23] mysql20160615174459125 /vod/WASUCP/mysql20160615174459125// not exists - mkdir 

[2016-08-16 15:13:23] mysql20160615174459125 Start DownLoad File 

[2016-08-16 15:13:32] mysql20160615174459125 Finish DownLoad File /home/vision/transcTemp/ygxt2-24.mp4

[2016-08-16 15:13:32] mysql20160615174459125 Task Add Success!! 

[2016-08-16 15:14:07] mysql20160615174459125 Start Transcoding

[2016-08-21 09:34:21] merge20160615174459125 /vod/WASUCP/merge20160615174459125// not exists - mkdir 

[2016-08-21 09:34:21] merge20160615174459125 Start DownLoad File 

[2016-08-21 09:34:23] merge20160615174459125 Finish DownLoad File /home/vision/transcTemp/ygxt2-24.mp4 /home/vision/transcTemp/ygxt2-25.mp4

[2016-08-21 09:34:23] merge20160615174459125 MergeTask Add Success!! 

[2016-08-21 09:51:51] merge20160615174459125 Start Merge

[2016-08-21 10:46:28] mysql20160615174459129 /vod/WASUCP/mysql20160615174459129// not exists - mkdir 

[2016-08-21 10:46:28] mysql20160615174459129 Start DownLoad File 

[2016-08-21 10:46:29] mysql20160615174459129 Finish DownLoad File /home/vision/transcTemp/ygxt2-24.mp4

[2016-08-21 10:46:29] mysql20160615174459129 Task Add Success!! 

[2016-08-21 10:47:03] mysql20160615174459129 Start Transcoding

[2016-08-21 10:54:01] merge20160815174459125 /vod/WASUCP/merge20160815174459125// not exists - mkdir 

[2016-08-21 10:54:01] merge20160815174459125 Start DownLoad File 

[2016-08-21 10:54:02] merge20160815174459125 Finish DownLoad File /home/vision/transcTemp/ygxt2-24.mp4 /home/vision/transcTemp/ygxt2-25.mp4

[2016-08-21 10:54:02] merge20160815174459125 MergeTask Add Success!! 

[2016-08-21 10:54:24] merge20160815174459125 Start Merge

[2016-08-21 11:05:49] merge20160819174459125 /vod/WASUCP/merge2016081974459125// not exists - mkdir 

[2016-08-21 11:05:49] merge20160819174459125 Start DownLoad File 

[2016-08-21 11:05:50] merge20160819174459125 Finish DownLoad File /home/vision/transcTemp/cctv1gq.ts /home/vision/transcTemp/cctv3gq.ts

[2016-08-21 11:05:50] merge20160819174459125 MergeTask Add Success!! 

[2016-08-21 11:06:08] merge20160819174459125 Start Merge

[2016-08-21 11:43:54] merge20160815174459125 /vod/WASUCP/merge20160815174459125// has exists

[2016-08-21 11:44:22] merge20160815174459127 /vod/WASUCP/merge20160815174459127// not exists - mkdir 

[2016-08-21 11:44:22] merge20160815174459127 Start DownLoad File 

[2016-08-21 11:44:23] merge20160815174459127 Finish DownLoad File /home/vision/transcTemp/ygxt2-24.mp4 /home/vision/transcTemp/ygxt2-25.mp4

[2016-08-21 11:44:23] merge20160815174459127 MergeTask Add Success!! 

[2016-08-21 11:44:44] merge20160815174459127 Start Merge

[2016-08-21 11:53:56] mergeTS20160819174459125 /vod/WASUCP/mergeTS2016081974459125// not exists - mkdir 

[2016-08-21 11:53:56] mergeTS20160819174459125 Start DownLoad File 

[2016-08-21 11:54:19] mergeTS20160819174459125 Finish DownLoad File /home/vision/transcTemp/41340697748390.ts /home/vision/transcTemp/xinwen.ts

[2016-08-21 11:54:19] mergeTS20160819174459125 MergeTask Add Success!! 

[2016-08-21 11:54:36] mergeTS20160819174459125 Start Merge

